<svg xmlns="http://www.w3.org/2000/svg" width="18.885" height="19.25" viewBox="0 0 18.885 19.25">
  <g id="noun_545376_cc" transform="translate(221.4 193.8)">
    <path id="Path_20" data-name="Path 20" d="M32.023,12.99V8.861a.661.661,0,1,0-1.323,0V12.99a.661.661,0,0,0,1.323,0Z" transform="translate(-247.059 -202)" fill="#3cc"/>
    <path id="Path_21" data-name="Path 21" d="M64.823,12.99V8.861a.661.661,0,0,0-1.323,0V12.99a.661.661,0,0,0,1.323,0Z" transform="translate(-272.378 -202)" fill="#3cc"/>
    <path id="Path_22" data-name="Path 22" d="M25,19.4H23.813a.661.661,0,0,0,0,1.323H25a1.168,1.168,0,0,1,1.163,1.163V24.1H9.923V21.886a1.168,1.168,0,0,1,1.163-1.163h1.186a.661.661,0,0,0,0-1.323H11.086A2.492,2.492,0,0,0,8.6,21.886V33.61A2.492,2.492,0,0,0,11.086,36.1H25a2.492,2.492,0,0,0,2.486-2.486V21.886A2.492,2.492,0,0,0,25,19.4Zm0,15.373H11.086A1.168,1.168,0,0,1,9.923,33.61V25.444h16.24V33.61A1.168,1.168,0,0,1,25,34.773Z" transform="translate(-230 -210.645)" fill="#3cc"/>
    <path id="Path_23" data-name="Path 23" d="M43.683,20.723a.661.661,0,1,0,0-1.323H40.261a.661.661,0,1,0,0,1.323Z" transform="translate(-253.929 -210.645)" fill="#3cc"/>
  </g>
</svg>
