<svg width="251.3912414550781px" height="67.04749908447266px" xmlns="http://www.w3.org/2000/svg" viewBox="124.30437927246095 41.47625045776367 251.3912414550781 67.04749908447266" style="background: none;" preserveAspectRatio="xMidYMid"><defs><filter id="editing-hole" x="-100%" y="-100%" width="300%" height="300%"><feFlood flood-color="#ffffff" result="black"></feFlood><feMorphology operator="dilate" radius="2" in="SourceGraphic" result="erode"></feMorphology><feGaussianBlur in="erode" stdDeviation="4" result="blur"></feGaussianBlur><feOffset in="blur" dx="2" dy="2" result="offset"></feOffset><feComposite operator="atop" in="offset" in2="black" result="merge"></feComposite><feComposite operator="in" in="merge" in2="SourceGraphic" result="inner-shadow"></feComposite></filter></defs><g filter="url(#editing-hole)"><g transform="translate(164.42218351364136, 85.828125)"><path d="M16.53 0L14.94 0L14.94 0Q13.31 0 12.62-0.64L12.62-0.64L12.62-0.64Q11.92-1.28 11.92-2.47L11.92-2.47L11.92-2.47Q11.92-3.10 12.04-4.73L12.04-4.73L12.04-4.73Q12.15-6.35 12.30-8.38L12.30-8.38L7.13-8.38L6.55-0.43L6.55-0.43Q6.53-0.20 6.44-0.10L6.44-0.10L6.44-0.10Q6.35 0 6.09 0L6.09 0L4.50 0L4.50 0Q2.87 0 2.18-0.64L2.18-0.64L2.18-0.64Q1.48-1.28 1.48-2.47L1.48-2.47L1.48-2.47Q1.48-3.05 1.57-4.45L1.57-4.45L1.57-4.45Q1.65-5.86 1.80-7.66L1.80-7.66L1.80-7.66Q1.94-9.45 2.09-11.46L2.09-11.46L2.09-11.46Q2.23-13.46 2.38-15.23L2.38-15.23L2.38-15.23Q2.52-16.99 2.61-18.33L2.61-18.33L2.61-18.33Q2.70-19.66 2.70-20.16L2.70-20.16L2.70-20.16Q2.70-20.59 3.16-20.59L3.16-20.59L4.76-20.59L4.76-20.59Q6.53-20.59 7.13-19.84L7.13-19.84L7.13-19.84Q7.74-19.08 7.74-17.60L7.74-17.60L7.74-17.60Q7.74-17.37 7.66-15.96L7.66-15.96L7.66-15.96Q7.57-14.56 7.42-12.59L7.42-12.59L12.62-12.59L12.62-12.59Q12.70-13.86 12.80-15.08L12.80-15.08L12.80-15.08Q12.91-16.30 12.98-17.31L12.98-17.31L12.98-17.31Q13.05-18.33 13.09-19.07L13.09-19.07L13.09-19.07Q13.14-19.81 13.14-20.16L13.14-20.16L13.14-20.16Q13.14-20.59 13.60-20.59L13.60-20.59L15.20-20.59L15.20-20.59Q16.96-20.59 17.57-19.84L17.57-19.84L17.57-19.84Q18.18-19.08 18.18-17.60L18.18-17.60L18.18-17.60Q18.18-17.46 18.14-16.68L18.14-16.68L18.14-16.68Q18.10-15.89 18.01-14.70L18.01-14.70L18.01-14.70Q17.92-13.51 17.82-12.05L17.82-12.05L17.82-12.05Q17.72-10.59 17.62-9.05L17.62-9.05L17.62-9.05Q17.52-7.51 17.41-6.05L17.41-6.05L17.41-6.05Q17.31-4.58 17.23-3.39L17.23-3.39L17.23-3.39Q17.14-2.20 17.08-1.41L17.08-1.41L17.08-1.41Q17.02-0.61 16.99-0.43L16.99-0.43L16.99-0.43Q16.96-0.20 16.88-0.10L16.88-0.10L16.88-0.10Q16.79 0 16.53 0L16.53 0ZM27.29 0.29L27.29 0.29L27.29 0.29Q26.01 0.29 24.75-0.03L24.75-0.03L24.75-0.03Q23.49-0.35 22.49-1.13L22.49-1.13L22.49-1.13Q21.49-1.91 20.85-3.22L20.85-3.22L20.85-3.22Q20.21-4.52 20.21-6.50L20.21-6.50L20.21-6.50Q20.21-7.22 20.33-8.24L20.33-8.24L20.33-8.24Q20.45-9.25 20.78-10.32L20.78-10.32L20.78-10.32Q21.11-11.40 21.71-12.46L21.71-12.46L21.71-12.46Q22.30-13.51 23.26-14.36L23.26-14.36L23.26-14.36Q24.21-15.20 25.58-15.72L25.58-15.72L25.58-15.72Q26.94-16.24 28.83-16.24L28.83-16.24L28.83-16.24Q30.33-16.24 31.38-15.89L31.38-15.89L31.38-15.89Q32.42-15.54 33.06-14.95L33.06-14.95L33.06-14.95Q33.70-14.36 33.99-13.57L33.99-13.57L33.99-13.57Q34.28-12.79 34.28-11.89L34.28-11.89L34.28-11.89Q34.28-10.56 33.74-9.63L33.74-9.63L33.74-9.63Q33.20-8.70 32.35-8.08L32.35-8.08L32.35-8.08Q31.49-7.45 30.45-7.11L30.45-7.11L30.45-7.11Q29.41-6.76 28.39-6.57L28.39-6.57L28.39-6.57Q27.38-6.38 26.52-6.34L26.52-6.34L26.52-6.34Q25.66-6.29 25.20-6.29L25.20-6.29L25.20-6.29Q25.20-5.74 25.36-5.21L25.36-5.21L25.36-5.21Q25.52-4.67 25.84-4.26L25.84-4.26L25.84-4.26Q26.16-3.86 26.68-3.60L26.68-3.60L26.68-3.60Q27.20-3.33 27.96-3.33L27.96-3.33L27.96-3.33Q28.71-3.33 29.13-3.58L29.13-3.58L29.13-3.58Q29.55-3.83 29.81-4.13L29.81-4.13L29.81-4.13Q30.07-4.44 30.26-4.68L30.26-4.68L30.26-4.68Q30.45-4.93 30.77-4.93L30.77-4.93L30.77-4.93Q30.91-4.93 31.28-4.86L31.28-4.86L31.28-4.86Q31.64-4.79 32.02-4.55L32.02-4.55L32.02-4.55Q32.39-4.32 32.68-3.92L32.68-3.92L32.68-3.92Q32.97-3.51 32.97-2.87L32.97-2.87L32.97-2.87Q32.97-2.03 32.45-1.42L32.45-1.42L32.45-1.42Q31.93-0.81 31.10-0.43L31.10-0.43L31.10-0.43Q30.28-0.06 29.26 0.12L29.26 0.12L29.26 0.12Q28.25 0.29 27.29 0.29ZM27.84-12.38L27.84-12.38L27.84-12.38Q27.20-12.38 26.75-12.02L26.75-12.02L26.75-12.02Q26.30-11.66 26.00-11.11L26.00-11.11L26.00-11.11Q25.69-10.56 25.53-9.89L25.53-9.89L25.53-9.89Q25.38-9.22 25.29-8.61L25.29-8.61L25.29-8.61Q27.09-8.64 28.20-9.22L28.20-9.22L28.20-9.22Q29.32-9.80 29.32-10.88L29.32-10.88L29.32-10.88Q29.32-11.46 28.96-11.92L28.96-11.92L28.96-11.92Q28.59-12.38 27.84-12.38ZM39.38 0.26L39.38 0.26L39.38 0.26Q37.58 0.26 36.80-0.70L36.80-0.70L36.80-0.70Q36.02-1.65 36.02-3.86L36.02-3.86L36.02-3.86Q36.02-4.21 36.06-4.73L36.06-4.73L36.06-4.73Q36.11-5.25 36.18-6.08L36.18-6.08L36.18-6.08Q36.25-6.90 36.37-8.12L36.37-8.12L36.37-8.12Q36.48-9.34 36.61-11.08L36.61-11.08L36.61-11.08Q36.74-12.82 36.90-15.17L36.90-15.17L36.90-15.17Q37.06-17.52 37.24-20.62L37.24-20.62L37.24-20.62Q37.27-21.26 37.38-21.37L37.38-21.37L37.38-21.37Q37.47-21.46 37.84-21.46L37.84-21.46L38.98-21.46L38.98-21.46Q39.85-21.46 40.43-21.26L40.43-21.26L40.43-21.26Q41.01-21.05 41.35-20.71L41.35-20.71L41.35-20.71Q41.70-20.36 41.85-19.91L41.85-19.91L41.85-19.91Q41.99-19.46 41.99-18.97L41.99-18.97L41.99-18.97Q41.99-18.39 41.92-17.30L41.92-17.30L41.92-17.30Q41.85-16.21 41.73-14.85L41.73-14.85L41.73-14.85Q41.62-13.49 41.50-12.01L41.50-12.01L41.50-12.01Q41.38-10.53 41.27-9.18L41.27-9.18L41.27-9.18Q41.15-7.83 41.08-6.76L41.08-6.76L41.08-6.76Q41.01-5.68 41.01-5.13L41.01-5.13L41.01-5.13Q41.01-4.38 41.28-4.06L41.28-4.06L41.28-4.06Q41.56-3.74 41.88-3.61L41.88-3.61L41.88-3.61Q42.20-3.48 42.47-3.44L42.47-3.44L42.47-3.44Q42.75-3.39 42.75-3.25L42.75-3.25L42.75-3.25Q42.75-2.61 42.60-1.99L42.60-1.99L42.60-1.99Q42.46-1.36 42.08-0.86L42.08-0.86L42.08-0.86Q41.70-0.35 41.05-0.04L41.05-0.04L41.05-0.04Q40.40 0.26 39.38 0.26ZM48.14 0.26L48.14 0.26L48.14 0.26Q46.34 0.26 45.56-0.70L45.56-0.70L45.56-0.70Q44.78-1.65 44.78-3.86L44.78-3.86L44.78-3.86Q44.78-4.21 44.82-4.73L44.82-4.73L44.82-4.73Q44.86-5.25 44.94-6.08L44.94-6.08L44.94-6.08Q45.01-6.90 45.12-8.12L45.12-8.12L45.12-8.12Q45.24-9.34 45.37-11.08L45.37-11.08L45.37-11.08Q45.50-12.82 45.66-15.17L45.66-15.17L45.66-15.17Q45.82-17.52 45.99-20.62L45.99-20.62L45.99-20.62Q46.02-21.26 46.14-21.37L46.14-21.37L46.14-21.37Q46.23-21.46 46.60-21.46L46.60-21.46L47.73-21.46L47.73-21.46Q48.60-21.46 49.18-21.26L49.18-21.26L49.18-21.26Q49.76-21.05 50.11-20.71L50.11-20.71L50.11-20.71Q50.46-20.36 50.61-19.91L50.61-19.91L50.61-19.91Q50.75-19.46 50.75-18.97L50.75-18.97L50.75-18.97Q50.75-18.39 50.68-17.30L50.68-17.30L50.68-17.30Q50.61-16.21 50.49-14.85L50.49-14.85L50.49-14.85Q50.37-13.49 50.26-12.01L50.26-12.01L50.26-12.01Q50.14-10.53 50.03-9.18L50.03-9.18L50.03-9.18Q49.91-7.83 49.84-6.76L49.84-6.76L49.84-6.76Q49.76-5.68 49.76-5.13L49.76-5.13L49.76-5.13Q49.76-4.38 50.04-4.06L50.04-4.06L50.04-4.06Q50.32-3.74 50.63-3.61L50.63-3.61L50.63-3.61Q50.95-3.48 51.23-3.44L51.23-3.44L51.23-3.44Q51.50-3.39 51.50-3.25L51.50-3.25L51.50-3.25Q51.50-2.61 51.36-1.99L51.36-1.99L51.36-1.99Q51.21-1.36 50.84-0.86L50.84-0.86L50.84-0.86Q50.46-0.35 49.81-0.04L49.81-0.04L49.81-0.04Q49.16 0.26 48.14 0.26ZM60.03 0.29L60.03 0.29L60.03 0.29Q58.03 0.29 56.71-0.28L56.71-0.28L56.71-0.28Q55.39-0.84 54.61-1.83L54.61-1.83L54.61-1.83Q53.82-2.81 53.51-4.13L53.51-4.13L53.51-4.13Q53.19-5.45 53.19-6.96L53.19-6.96L53.19-6.96Q53.19-8.70 53.61-10.37L53.61-10.37L53.61-10.37Q54.03-12.04 55.04-13.34L55.04-13.34L55.04-13.34Q56.06-14.65 57.72-15.44L57.72-15.44L57.72-15.44Q59.39-16.24 61.89-16.24L61.89-16.24L61.89-16.24Q65.54-16.24 67.12-14.46L67.12-14.46L67.12-14.46Q68.70-12.67 68.70-9.45L68.70-9.45L68.70-9.45Q68.70-8.55 68.57-7.47L68.57-7.47L68.57-7.47Q68.44-6.38 68.08-5.31L68.08-5.31L68.08-5.31Q67.72-4.23 67.09-3.22L67.09-3.22L67.09-3.22Q66.47-2.20 65.51-1.42L65.51-1.42L65.51-1.42Q64.55-0.64 63.21-0.17L63.21-0.17L63.21-0.17Q61.86 0.29 60.03 0.29ZM61.39-12.38L61.39-12.38L61.39-12.38Q60.29-12.38 59.64-11.82L59.64-11.82L59.64-11.82Q58.99-11.25 58.65-10.45L58.65-10.45L58.65-10.45Q58.32-9.66 58.22-8.77L58.22-8.77L58.22-8.77Q58.12-7.89 58.12-7.28L58.12-7.28L58.12-7.28Q58.12-5.37 58.73-4.47L58.73-4.47L58.73-4.47Q59.33-3.57 60.47-3.57L60.47-3.57L60.47-3.57Q61.48-3.57 62.13-4.21L62.13-4.21L62.13-4.21Q62.79-4.84 63.15-5.74L63.15-5.74L63.15-5.74Q63.51-6.64 63.64-7.63L63.64-7.63L63.64-7.63Q63.77-8.61 63.77-9.28L63.77-9.28L63.77-9.28Q63.77-10.73 63.23-11.56L63.23-11.56L63.23-11.56Q62.70-12.38 61.39-12.38ZM78.59-20.16L78.59-20.16L78.59-20.16Q78.62-20.39 78.78-20.49L78.78-20.49L78.78-20.49Q78.94-20.59 79.08-20.59L79.08-20.59L79.08-20.59Q81.06-20.59 82.78-20.72L82.78-20.72L82.78-20.72Q84.51-20.85 85.49-20.85L85.49-20.85L85.49-20.85Q87.96-20.85 89.62-20.36L89.62-20.36L89.62-20.36Q91.29-19.87 92.32-18.82L92.32-18.82L92.32-18.82Q93.35-17.78 93.79-16.12L93.79-16.12L93.79-16.12Q94.22-14.47 94.22-12.15L94.22-12.15L94.22-12.15Q94.22-9.80 93.74-7.55L93.74-7.55L93.74-7.55Q93.26-5.31 92.08-3.57L92.08-3.57L92.08-3.57Q90.89-1.83 88.87-0.77L88.87-0.77L88.87-0.77Q86.86 0.29 83.78 0.29L83.78 0.29L83.78 0.29Q82.36 0.29 81.19 0.23L81.19 0.23L81.19 0.23Q80.01 0.17 79.17-0.12L79.17-0.12L79.17-0.12Q78.33-0.41 77.87-0.99L77.87-0.99L77.87-0.99Q77.40-1.57 77.40-2.58L77.40-2.58L77.40-2.58Q77.40-2.96 77.44-3.71L77.44-3.71L77.44-3.71Q77.49-4.47 77.56-5.51L77.56-5.51L77.56-5.51Q77.63-6.55 77.73-7.82L77.73-7.82L77.73-7.82Q77.84-9.08 77.95-10.47L77.95-10.47L77.95-10.47Q78.18-13.34 78.31-15.05L78.31-15.05L78.31-15.05Q78.45-16.76 78.49-17.73L78.49-17.73L78.49-17.73Q78.53-18.71 78.55-19.20L78.55-19.20L78.55-19.20Q78.56-19.69 78.59-20.16ZM83.98-4.29L83.98-4.29L83.98-4.29Q85.61-4.29 86.58-4.99L86.58-4.99L86.58-4.99Q87.55-5.68 88.07-6.76L88.07-6.76L88.07-6.76Q88.60-7.83 88.77-9.11L88.77-9.11L88.77-9.11Q88.94-10.38 88.94-11.51L88.94-11.51L88.94-11.51Q88.94-12.73 88.78-13.64L88.78-13.64L88.78-13.64Q88.62-14.56 88.23-15.17L88.23-15.17L88.23-15.17Q87.84-15.78 87.15-16.08L87.15-16.08L87.15-16.08Q86.45-16.39 85.41-16.39L85.41-16.39L85.41-16.39Q85.09-16.39 84.59-16.36L84.59-16.36L84.59-16.36Q84.10-16.33 83.40-16.27L83.40-16.27L83.40-16.27Q83.35-15.20 83.26-13.73L83.26-13.73L83.26-13.73Q83.17-12.27 83.07-10.66L83.07-10.66L83.07-10.66Q82.97-9.05 82.85-7.41L82.85-7.41L82.85-7.41Q82.74-5.77 82.62-4.38L82.62-4.38L82.62-4.38Q83.06-4.32 83.40-4.31L83.40-4.31L83.40-4.31Q83.75-4.29 83.98-4.29ZM102.92 0.29L102.92 0.29L102.92 0.29Q100.92 0.29 99.60-0.28L99.60-0.28L99.60-0.28Q98.28-0.84 97.50-1.83L97.50-1.83L97.50-1.83Q96.72-2.81 96.40-4.13L96.40-4.13L96.40-4.13Q96.08-5.45 96.08-6.96L96.08-6.96L96.08-6.96Q96.08-8.70 96.50-10.37L96.50-10.37L96.50-10.37Q96.92-12.04 97.93-13.34L97.93-13.34L97.93-13.34Q98.95-14.65 100.62-15.44L100.62-15.44L100.62-15.44Q102.28-16.24 104.78-16.24L104.78-16.24L104.78-16.24Q108.43-16.24 110.01-14.46L110.01-14.46L110.01-14.46Q111.59-12.67 111.59-9.45L111.59-9.45L111.59-9.45Q111.59-8.55 111.46-7.47L111.46-7.47L111.46-7.47Q111.33-6.38 110.97-5.31L110.97-5.31L110.97-5.31Q110.61-4.23 109.98-3.22L109.98-3.22L109.98-3.22Q109.36-2.20 108.40-1.42L108.40-1.42L108.40-1.42Q107.45-0.64 106.10-0.17L106.10-0.17L106.10-0.17Q104.75 0.29 102.92 0.29ZM104.28-12.38L104.28-12.38L104.28-12.38Q103.18-12.38 102.53-11.82L102.53-11.82L102.53-11.82Q101.88-11.25 101.54-10.45L101.54-10.45L101.54-10.45Q101.21-9.66 101.11-8.77L101.11-8.77L101.11-8.77Q101.01-7.89 101.01-7.28L101.01-7.28L101.01-7.28Q101.01-5.37 101.62-4.47L101.62-4.47L101.62-4.47Q102.23-3.57 103.36-3.57L103.36-3.57L103.36-3.57Q104.37-3.57 105.02-4.21L105.02-4.21L105.02-4.21Q105.68-4.84 106.04-5.74L106.04-5.74L106.04-5.74Q106.40-6.64 106.53-7.63L106.53-7.63L106.53-7.63Q106.66-8.61 106.66-9.28L106.66-9.28L106.66-9.28Q106.66-10.73 106.13-11.56L106.13-11.56L106.13-11.56Q105.59-12.38 104.28-12.38ZM121.08-3.57L121.08-3.57L121.08-3.57Q121.92-3.57 122.54-3.80L122.54-3.80L122.54-3.80Q123.16-4.03 123.63-4.32L123.63-4.32L123.63-4.32Q124.09-4.61 124.41-4.84L124.41-4.84L124.41-4.84Q124.73-5.08 124.99-5.08L124.99-5.08L124.99-5.08Q125.66-5.08 125.66-4.21L125.66-4.21L125.66-4.21Q125.66-4.00 125.57-3.64L125.57-3.64L125.57-3.64Q125.48-3.28 125.34-2.89L125.34-2.89L125.34-2.89Q125.19-2.49 125.03-2.15L125.03-2.15L125.03-2.15Q124.87-1.80 124.73-1.62L124.73-1.62L124.73-1.62Q124.58-1.48 124.22-1.16L124.22-1.16L124.22-1.16Q123.86-0.84 123.25-0.52L123.25-0.52L123.25-0.52Q122.64-0.20 121.83 0.04L121.83 0.04L121.83 0.04Q121.02 0.29 120.03 0.29L120.03 0.29L120.03 0.29Q118.93 0.29 117.75-0.04L117.75-0.04L117.75-0.04Q116.58-0.38 115.62-1.20L115.62-1.20L115.62-1.20Q114.67-2.03 114.04-3.44L114.04-3.44L114.04-3.44Q113.42-4.84 113.42-6.96L113.42-6.96L113.42-6.96Q113.42-7.71 113.52-8.69L113.52-8.69L113.52-8.69Q113.62-9.66 113.94-10.69L113.94-10.69L113.94-10.69Q114.26-11.72 114.80-12.72L114.80-12.72L114.80-12.72Q115.33-13.72 116.23-14.50L116.23-14.50L116.23-14.50Q117.13-15.28 118.39-15.76L118.39-15.76L118.39-15.76Q119.65-16.24 121.39-16.24L121.39-16.24L121.39-16.24Q122.82-16.24 123.84-15.91L123.84-15.91L123.84-15.91Q124.87-15.57 125.54-15.01L125.54-15.01L125.54-15.01Q126.21-14.44 126.54-13.69L126.54-13.69L126.54-13.69Q126.88-12.93 126.88-12.06L126.88-12.06L126.88-12.06Q126.88-10.50 125.89-9.76L125.89-9.76L125.89-9.76Q124.90-9.02 123.11-9.02L123.11-9.02L123.11-9.02Q122.67-9.02 122.51-9.09L122.51-9.09L122.51-9.09Q122.35-9.16 122.35-9.43L122.35-9.43L122.35-9.43Q122.35-10.12 122.32-10.67L122.32-10.67L122.32-10.67Q122.29-11.22 122.16-11.60L122.16-11.60L122.16-11.60Q122.03-11.98 121.77-12.18L121.77-12.18L121.77-12.18Q121.51-12.38 121.02-12.38L121.02-12.38L121.02-12.38Q120.12-12.38 119.58-11.80L119.58-11.80L119.58-11.80Q119.05-11.22 118.77-10.40L118.77-10.40L118.77-10.40Q118.49-9.57 118.42-8.70L118.42-8.70L118.42-8.70Q118.35-7.83 118.35-7.25L118.35-7.25L118.35-7.25Q118.35-5.19 119.00-4.38L119.00-4.38L119.00-4.38Q119.65-3.57 121.08-3.57ZM136.27-12.04L134.73-12.04L134.73-12.04Q134.65-10.93 134.55-9.86L134.55-9.86L134.55-9.86Q134.44-8.79 134.36-7.83L134.36-7.83L134.36-7.83Q134.27-6.87 134.23-6.12L134.23-6.12L134.23-6.12Q134.18-5.37 134.18-4.96L134.18-4.96L134.18-4.96Q134.18-4.21 134.36-3.96L134.36-3.96L134.36-3.96Q134.53-3.71 134.94-3.71L134.94-3.71L134.94-3.71Q135.26-3.71 135.49-3.83L135.49-3.83L135.49-3.83Q135.72-3.94 135.92-4.09L135.92-4.09L135.92-4.09Q136.13-4.23 136.29-4.35L136.29-4.35L136.29-4.35Q136.45-4.47 136.65-4.47L136.65-4.47L136.65-4.47Q136.85-4.47 137.03-4.23L137.03-4.23L137.03-4.23Q137.20-4.00 137.20-3.16L137.20-3.16L137.20-3.16Q137.20-1.57 136.33-0.64L136.33-0.64L136.33-0.64Q135.46 0.29 133.34 0.29L133.34 0.29L133.34 0.29Q131.25 0.29 130.25-0.68L130.25-0.68L130.25-0.68Q129.25-1.65 129.25-3.65L129.25-3.65L129.25-3.65Q129.25-4.09 129.30-4.68L129.30-4.68L129.30-4.68Q129.34-5.28 129.43-6.24L129.43-6.24L129.43-6.24Q129.51-7.19 129.64-8.58L129.64-8.58L129.64-8.58Q129.78-9.98 129.92-12.04L129.92-12.04L128.38-12.04L128.38-12.04Q128.15-12.04 128.11-12.14L128.11-12.14L128.11-12.14Q128.06-12.24 128.06-12.44L128.06-12.44L128.15-13.92L128.15-13.92Q128.18-14.30 128.25-14.66L128.25-14.66L128.25-14.66Q128.33-15.02 128.54-15.31L128.54-15.31L128.54-15.31Q128.76-15.60 129.17-15.78L129.17-15.78L129.17-15.78Q129.57-15.95 130.24-15.95L130.24-15.95L130.24-15.95Q130.44-16.47 130.70-17.20L130.70-17.20L130.70-17.20Q130.96-17.92 131.23-18.60L131.23-18.60L131.23-18.60Q131.49-19.29 131.73-19.75L131.73-19.75L131.73-19.75Q131.98-20.21 132.18-20.21L132.18-20.21L133.02-20.21L133.02-20.21Q134.24-20.21 134.71-19.46L134.71-19.46L134.71-19.46Q135.17-18.71 135.17-17.66L135.17-17.66L135.17-17.66Q135.17-17.08 135.08-15.95L135.08-15.95L138.13-15.95L138.13-15.95Q138.59-15.95 138.59-15.54L138.59-15.54L138.48-13.98L138.48-13.98Q138.42-13.11 138.00-12.57L138.00-12.57L138.00-12.57Q137.58-12.04 136.27-12.04L136.27-12.04ZM146.36 0.29L146.36 0.29L146.36 0.29Q144.36 0.29 143.04-0.28L143.04-0.28L143.04-0.28Q141.72-0.84 140.94-1.83L140.94-1.83L140.94-1.83Q140.16-2.81 139.84-4.13L139.84-4.13L139.84-4.13Q139.52-5.45 139.52-6.96L139.52-6.96L139.52-6.96Q139.52-8.70 139.94-10.37L139.94-10.37L139.94-10.37Q140.36-12.04 141.38-13.34L141.38-13.34L141.38-13.34Q142.39-14.65 144.06-15.44L144.06-15.44L144.06-15.44Q145.73-16.24 148.22-16.24L148.22-16.24L148.22-16.24Q151.87-16.24 153.45-14.46L153.45-14.46L153.45-14.46Q155.03-12.67 155.03-9.45L155.03-9.45L155.03-9.45Q155.03-8.55 154.90-7.47L154.90-7.47L154.90-7.47Q154.77-6.38 154.41-5.31L154.41-5.31L154.41-5.31Q154.05-4.23 153.42-3.22L153.42-3.22L153.42-3.22Q152.80-2.20 151.84-1.42L151.84-1.42L151.84-1.42Q150.89-0.64 149.54-0.17L149.54-0.17L149.54-0.17Q148.19 0.29 146.36 0.29ZM147.73-12.38L147.73-12.38L147.73-12.38Q146.62-12.38 145.97-11.82L145.97-11.82L145.97-11.82Q145.32-11.25 144.99-10.45L144.99-10.45L144.99-10.45Q144.65-9.66 144.55-8.77L144.55-8.77L144.55-8.77Q144.45-7.89 144.45-7.28L144.45-7.28L144.45-7.28Q144.45-5.37 145.06-4.47L145.06-4.47L145.06-4.47Q145.67-3.57 146.80-3.57L146.80-3.57L146.80-3.57Q147.81-3.57 148.47-4.21L148.47-4.21L148.47-4.21Q149.12-4.84 149.48-5.74L149.48-5.74L149.48-5.74Q149.84-6.64 149.97-7.63L149.97-7.63L149.97-7.63Q150.10-8.61 150.10-9.28L150.10-9.28L150.10-9.28Q150.10-10.73 149.57-11.56L149.57-11.56L149.57-11.56Q149.03-12.38 147.73-12.38ZM166.58-9.02L166.58-9.02L166.58-9.02Q166.40-9.02 166.18-9.03L166.18-9.03L166.18-9.03Q165.97-9.05 165.76-9.09L165.76-9.09L165.76-9.09Q165.56-9.13 165.42-9.21L165.42-9.21L165.42-9.21Q165.27-9.28 165.27-9.40L165.27-9.40L165.27-9.40Q165.27-9.77 165.30-10.09L165.30-10.09L165.30-10.09Q165.33-10.41 165.33-10.76L165.33-10.76L165.33-10.76Q165.33-11.40 165.16-11.80L165.16-11.80L165.16-11.80Q164.98-12.21 164.46-12.21L164.46-12.21L164.46-12.21Q163.65-12.21 163.11-11.15L163.11-11.15L163.11-11.15Q162.57-10.09 162.43-7.98L162.43-7.98L162.43-7.98Q162.37-7.05 162.27-5.87L162.27-5.87L162.27-5.87Q162.17-4.70 162.08-3.61L162.08-3.61L162.08-3.61Q161.99-2.52 161.94-1.68L161.94-1.68L161.94-1.68Q161.88-0.84 161.88-0.58L161.88-0.58L161.88-0.58Q161.88-0.29 161.68-0.15L161.68-0.15L161.68-0.15Q161.47 0 161.24 0L161.24 0L160.20 0L160.20 0Q159.30 0 158.73-0.19L158.73-0.19L158.73-0.19Q158.17-0.38 157.83-0.73L157.83-0.73L157.83-0.73Q157.50-1.07 157.37-1.58L157.37-1.58L157.37-1.58Q157.24-2.09 157.24-2.76L157.24-2.76L157.24-2.76Q157.24-3.19 157.28-3.99L157.28-3.99L157.28-3.99Q157.33-4.79 157.44-6.19L157.44-6.19L157.44-6.19Q157.56-7.60 157.72-9.76L157.72-9.76L157.72-9.76Q157.88-11.92 158.11-15.11L158.11-15.11L158.11-15.11Q158.17-15.95 158.72-15.95L158.72-15.95L159.85-15.95L159.85-15.95Q160.66-15.95 161.21-15.78L161.21-15.78L161.21-15.78Q161.76-15.60 162.11-15.30L162.11-15.30L162.11-15.30Q162.46-14.99 162.62-14.59L162.62-14.59L162.62-14.59Q162.78-14.18 162.84-13.75L162.84-13.75L162.84-13.75Q163.18-14.41 163.66-14.89L163.66-14.89L163.66-14.89Q164.14-15.37 164.66-15.67L164.66-15.67L164.66-15.67Q165.18-15.98 165.74-16.11L165.74-16.11L165.74-16.11Q166.29-16.24 166.75-16.24L166.75-16.24L166.75-16.24Q167.30-16.24 167.87-16.04L167.87-16.04L167.87-16.04Q168.43-15.83 168.90-15.43L168.90-15.43L168.90-15.43Q169.36-15.02 169.64-14.38L169.64-14.38L169.64-14.38Q169.91-13.75 169.91-12.88L169.91-12.88L169.91-12.88Q169.91-12.09 169.68-11.40L169.68-11.40L169.68-11.40Q169.45-10.70 169.01-10.16L169.01-10.16L169.01-10.16Q168.58-9.63 167.95-9.32L167.95-9.32L167.95-9.32Q167.33-9.02 166.58-9.02Z" fill="#ffffff"></path></g></g><style>text {
  font-size: 64px;
  font-family: Arial Black;
  dominant-baseline: central;
  text-anchor: middle;
}</style></svg>