<svg xmlns="http://www.w3.org/2000/svg" width="74.742" height="28.074" viewBox="0 0 74.742 28.074">
  <g id="group-69" transform="translate(0.06 -0.331)">
    <path id="path" d="M134.945,306.494a3.533,3.533,0,0,0-.88.528A7.516,7.516,0,0,0,132.6,308.6a15.134,15.134,0,0,0-1.76,3.811c-.468,1.406-.935,2.871-1.407,4.336-.469,1.407-.88,2.873-1.289,4.337-.234.762-.41,1.465-.586,2.227a17.882,17.882,0,0,1-.586,2.052,14.239,14.239,0,0,1-.7-1.525c-.47-1.113-.938-2.227-1.407-3.394-.41-1.055-1.7-4.275-1.993-4.746a7.218,7.218,0,0,0-.88-1.349,2.254,2.254,0,0,0-2.167-.411,2.067,2.067,0,0,0-1.466,1.641,1.1,1.1,0,0,0-.015.182v.034a12.979,12.979,0,0,0,.777,3.181c.175.587.411,1.113.644,1.7.88,2.228,1.817,4.454,2.814,6.506.938,2.225,2.655,5.751,3.107,6.446a2.451,2.451,0,0,0,2.4.821c.855-.165,1.522-1.349,1.875-2.227.411-1.114.7-2.287,1-3.395.351-1.172.644-2.343.937-3.52.587-2.343,1.113-4.688,1.875-6.974.411-1.172.822-2.284,1.232-3.459.469-1.172.88-2.284,1.348-3.457.234-.528.411-1.113.644-1.7.176-.527.411-1.054.587-1.634a1.147,1.147,0,0,0-.234-1.113,1.921,1.921,0,0,0-1.231-.528,3.587,3.587,0,0,0-1.173.058" transform="translate(-118.4 -306.09)" fill="#fff"/>
    <path id="path-2" data-name="path" d="M476.994,403.82c-.234-.176.235-2.052,1.524-3.752s2.99-3.1,3.281-2.753-1.055,2.577-1.993,3.808c-.835,1.17-2.357,2.711-2.756,2.711a.117.117,0,0,1-.054-.014m6.8-11.018a2.992,2.992,0,0,0-1,.411l-1.055.528a23.163,23.163,0,0,0-4.042,2.284,13.062,13.062,0,0,0-2.988,3.223,9.862,9.862,0,0,0-1.183,1.993,15.21,15.21,0,0,0-.7,2.111c-.116-.176-.233-.411-.351-.587-.175-.176-.292-.351-.468-.528a6.188,6.188,0,0,0-2.755-1.406c-1.173-.351-2.4-.7-3.576-1a8.092,8.092,0,0,1-1.693-.528c-.235-.116-1.291-.527-1.291-.762s.762-.351,1.055-.41l.88-.175c.645-.118,2.514-.529,2.814-.587a1.368,1.368,0,0,0,.586-.293c.351-.41-.411-2.343-.88-2.64a3.248,3.248,0,0,0-1.7-.351,8.472,8.472,0,0,0-3.394.762,7.745,7.745,0,0,0-2.514,1.641,4.132,4.132,0,0,0-1.172,2.931,2.421,2.421,0,0,0,.528,1.348,4.721,4.721,0,0,0,1.231.88,13.723,13.723,0,0,0,3.281,1.173c1.231.293,4.161,1.054,4.4,1.407s-1.817.7-2.4.644a10.542,10.542,0,0,1-3.52-1,2.321,2.321,0,0,0-.82-.293.894.894,0,0,0-.645.352,2.6,2.6,0,0,0-.7,1.232,2.227,2.227,0,0,0,1.935,2.988c.644.116,1.231.234,1.875.292a16.056,16.056,0,0,0,3.75,0,14.448,14.448,0,0,0,3.459-.937,4.358,4.358,0,0,0,1.231-.762,5.348,5.348,0,0,0,.527-.587,5.9,5.9,0,0,1,.47-.644,3.551,3.551,0,0,1,.351.644,2.137,2.137,0,0,0,.411.587,2.64,2.64,0,0,0,1.113.82,4.084,4.084,0,0,0,2.64,0,5.741,5.741,0,0,0,2.345-1.289,13.077,13.077,0,0,0,1.817-2.228c.566-.822,1.446-2.462,1.572-2.345.351,0,1.16,2.428,1.524,3.222a16.112,16.112,0,0,0,2.284,3.459c.635.558,2.294,1.226,2.981.293a2.492,2.492,0,0,0-.117-2.7c-.411-.645-.743-.992-1.232-1.875a16.618,16.618,0,0,1-.937-2.11,24.308,24.308,0,0,1-1.172-4.63c-.118-.82-.293-1.582-.411-2.4a3.974,3.974,0,0,0-.644-1.817,1.494,1.494,0,0,0-1.1-.416,3.065,3.065,0,0,0-.6.064" transform="translate(-415.676 -381.555)" fill="#fff"/>
    <path id="path-3" data-name="path" d="M242.309,389.848a1.637,1.637,0,0,1,1.407-1.114,1.082,1.082,0,0,1,1.055,1.173,2.172,2.172,0,0,1-.587,1.524,2.035,2.035,0,0,1-.762.469,4.892,4.892,0,0,1-1.113.411,3.928,3.928,0,0,1,0-2.46m17.292-5.685a3.362,3.362,0,0,0-1.289,1.113c-.411.528-.822,1.113-1.232,1.641a15.616,15.616,0,0,1-1.173,1.583,2.241,2.241,0,0,0-1.054-.763c-.425-.145-1.76-.292-2.169.117a1.554,1.554,0,0,0-.469,1.231c-.059.763-.059,1.525-.059,2.287a1.173,1.173,0,0,1-.117.762c-.117.116-1.7,1.58-2.227,2.11a12.38,12.38,0,0,1-1.7,1.348,6.226,6.226,0,0,1-1.76.88,4.631,4.631,0,0,1-1.934,0,2.957,2.957,0,0,1-1.5-.861s.851-.309,1.32-.485a9.406,9.406,0,0,0,2.64-1.583,4.943,4.943,0,0,0,1.522-2.64,5.142,5.142,0,0,0-.234-2.988,4,4,0,0,0-1.876-2.169,5.509,5.509,0,0,0-5.685,1.113,7.218,7.218,0,0,0-1.76,1.994,9.537,9.537,0,0,0-1.172,2.753,7.826,7.826,0,0,0-.175,1.642v.411a.833.833,0,0,1-.118.351,1.488,1.488,0,0,0-.117.7,2.69,2.69,0,0,0,.645,1.29,4.874,4.874,0,0,1,.82,1.406,5.867,5.867,0,0,0,4.63,3.164,7.117,7.117,0,0,0,3.339-.41,13.935,13.935,0,0,0,2.931-1.524c.469-.351.88-.7,1.348-1.054.117-.117.235-.177.351-.293.059-.059.293-.294.352-.294.176,0,.058.235.058.294,0,.116-.058.293-.058.41a2.83,2.83,0,0,0-.117,1.7.89.89,0,0,0,.937.7h.935a3.375,3.375,0,0,0,.762-.058.934.934,0,0,0,.528-.529c.175-.292.292-.527.41-.761.528-1,.88-2.11,1.349-3.164.469-1.113.994-2.169,1.524-3.224.293-.527,1.465-3.046,1.76-2.988.351.059.7,3.576.88,4.982a32.6,32.6,0,0,0,.762,4.042,5.451,5.451,0,0,0,.7,1.7,2.522,2.522,0,0,0,1.524.762,1.9,1.9,0,0,0,1.583-.351c.41-.469.233-1.113.116-1.7-.116-.644-.292-1.289-.41-1.991s-2.577-11.839-2.7-12.132a1.446,1.446,0,0,0-1.113-.7,2.067,2.067,0,0,0-.5-.059,2.319,2.319,0,0,0-1.017.235" transform="translate(-222.365 -373.854)" fill="#fff"/>
  </g>
</svg>
